<?xml version="1.0" encoding="UTF-8" standalone="no"?>
<!DOCTYPE svg PUBLIC "-//W3C//DTD SVG 1.1//EN" "http://www.w3.org/Graphics/SVG/1.1/DTD/svg11.dtd">
<!-- Generated by Microsoft Visio, SVG Export ospf-design-terms.svg Page-1 -->
<svg xmlns="http://www.w3.org/2000/svg" xmlns:xlink="http://www.w3.org/1999/xlink" xmlns:ev="http://www.w3.org/2001/xml-events"
		xmlns:v="http://schemas.microsoft.com/visio/2003/SVGExtensions/" width="7.75323in" height="4.7146in"
		viewBox="0 0 558.233 339.451" xml:space="preserve" color-interpolation-filters="sRGB" class="st23">
	<v:documentProperties v:langID="1026" v:viewMarkup="false"/>

	<style type="text/css">
	<![CDATA[
		.st1 {fill:#d8d8d8}
		.st2 {stroke:none;stroke-linecap:round;stroke-linejoin:round;stroke-width:1}
		.st3 {fill:#000000;font-family:Arial;font-size:0.916672em;font-weight:bold}
		.st4 {font-size:1em}
		.st5 {font-size:1em;font-weight:normal}
		.st6 {fill:#fee599;stroke:none;stroke-linecap:round;stroke-linejoin:round;stroke-width:1}
		.st7 {fill:#000000;font-family:Arial;font-size:1.00001em;font-weight:bold}
		.st8 {fill:#b7dde8;stroke:none;stroke-linecap:round;stroke-linejoin:round;stroke-width:1}
		.st9 {fill:#fbd7bb;stroke:none;stroke-linecap:round;stroke-linejoin:round;stroke-width:1}
		.st10 {fill:#d7e3bf;stroke:none;stroke-linecap:round;stroke-linejoin:round;stroke-width:1}
		.st11 {fill:#000000;font-family:Arial;font-size:1.16666em;font-weight:bold}
		.st12 {fill:#0e6f9c;stroke:none;stroke-linecap:round;stroke-linejoin:round;stroke-width:0.75}
		.st13 {stroke:#f2f2f2;stroke-linecap:round;stroke-linejoin:round;stroke-width:0.594974}
		.st14 {fill:#1082b8;stroke:none;stroke-linecap:round;stroke-linejoin:round;stroke-width:0.75}
		.st15 {stroke:#ffffff;stroke-linecap:round;stroke-linejoin:round;stroke-width:1}
		.st16 {fill:#ffffff;stroke:none;stroke-linecap:round;stroke-linejoin:round;stroke-width:0.75}
		.st17 {fill:none;stroke:none;stroke-linecap:round;stroke-linejoin:round;stroke-width:0.75}
		.st18 {fill:#ffffff;font-family:Arial;font-size:0.75em;font-weight:bold}
		.st19 {stroke:#a5a5a5;stroke-linecap:round;stroke-linejoin:round;stroke-width:1.25}
		.st20 {fill:#000000;font-family:Arial;font-size:0.833336em;font-weight:bold}
		.st21 {fill:#000000;font-family:Arial;font-size:0.833336em}
		.st22 {fill:#000000;font-family:Arial;font-size:0.75em;font-weight:bold}
		.st23 {fill:none;fill-rule:evenodd;font-size:12px;overflow:visible;stroke-linecap:square;stroke-miterlimit:3}
	]]>
	</style>

	<g v:mID="0" v:index="1" v:groupContext="foregroundPage">
		<title>Page-1</title>
		<v:pageProperties v:drawingScale="0.0393701" v:pageScale="0.0393701" v:drawingUnits="24" v:shadowOffsetX="9"
				v:shadowOffsetY="-9"/>
		<g id="group319-1" transform="translate(0.5,-0.5)" v:mID="319" v:groupContext="group">
			<title>Sheet.319</title>
			<g id="shape295-2" v:mID="295" v:groupContext="shape" transform="translate(431.823,-105.645)">
				<title>Cloud</title>
				<desc>Another Routing Protocol (EIGRP, BGP, OMP, etc.)</desc>
				<v:userDefs>
					<v:ud v:nameU="visVersion" v:prompt="" v:val="VT0(15):26"/>
				</v:userDefs>
				<v:textBlock v:margins="rect(6,6,6,8)" v:tabSpace="42.5197"/>
				<v:textRect cx="62.7069" cy="296.932" width="125.42" height="85.0394"/>
				<path d="M6.17 304.64 A9.90411 11.2986 0 0 1 10.92 282.94 A20.0844 22.9124 0 0 1 40.07 264.63 A23.0625 26.3097 0
							 0 1 65.04 260.55 A14.4622 16.4985 0 0 1 86.45 259.19 A16.4655 18.7839 0 0 1 112.62 265.98 A11.7733 13.4306
							 0 0 1 122.13 284.97 A14.5828 16.6355 0 0 1 110.24 312.11 A18.3973 20.987 0 0 1 84.08 325.67 A21.692
							 24.7455 0 0 1 48.4 331.11 A27.4974 31.3681 0 0 1 17.47 325.67 A10.8483 12.3758 0 0 1 6.17 304.64 Z"
						class="st1"/>
				<path d="M6.17 304.64 A9.90411 11.2986 0 0 1 10.92 282.94 A20.0844 22.9124 0 0 1 40.07 264.63 A23.0625 26.3097 0
							 0 1 65.04 260.55 A14.4622 16.4985 0 0 1 86.45 259.19 A16.4655 18.7839 0 0 1 112.62 265.98 A11.7733 13.4306
							 0 0 1 122.13 284.97 A14.5828 16.6355 0 0 1 110.24 312.11 A18.3973 20.987 0 0 1 84.08 325.67 A21.692
							 24.7455 0 0 1 48.4 331.11 A27.4974 31.3681 0 0 1 17.47 325.67 A10.8483 12.3758 0 0 1 6.17 304.64"
						class="st2"/>
				<path d="M12.7 305.32 A9.87674 11.2674 0 0 1 6.17 304.64" class="st2"/>
				<path d="M46.6 327.72 A9.91973 11.3165 -180 0 0 48.4 331.11" class="st2"/>
				<path d="M84.97 321.61 A8.00764 9.13514 0 0 1 84.08 325.67" class="st2"/>
				<path d="M103.1 301.25 A8.40261 9.58572 0 0 1 110.24 312.11" class="st2"/>
				<path d="M118.57 289.05 A7.6712 8.75133 -180 0 0 122.13 284.97" class="st2"/>
				<path d="M43.63 267.34 A11.8297 13.4949 -180 0 0 40.07 264.63" class="st2"/>
				<text x="20.33" y="281.81" class="st3" v:langID="1033"><v:paragraph v:spLine="-1.1" v:horizAlign="1"/><v:tabList/>Another Routing <tspan
							x="41.4" dy="1.1em" class="st4">Protocol<v:newlineChar/></tspan><tspan x="12.98" dy="1.1em" class="st5">(</tspan><tspan
							class="st5">EIGRP</tspan><tspan class="st5">, </tspan><tspan class="st5">BGP</tspan><tspan class="st5">, </tspan><tspan
							class="st5">OMP</tspan><tspan class="st5">, </tspan><tspan x="53.01" dy="1.1em" class="st5">etc</tspan><tspan
							class="st5">.)</tspan></text>			</g>
			<g id="shape246-22" v:mID="246" v:groupContext="shape" transform="translate(-6.39488E-014,-126.682)">
				<title>Rectangle.246</title>
				<desc>Area 25</desc>
				<v:userDefs>
					<v:ud v:nameU="visVersion" v:val="VT0(15):26"/>
				</v:userDefs>
				<v:textBlock v:margins="rect(4,4,4,6)" v:tabSpace="42.5197" v:verticalAlign="0"/>
				<v:textRect cx="114.844" cy="283.182" width="229.69" height="112.539"/>
				<rect x="0" y="226.912" width="229.688" height="112.539" rx="5.66929" ry="5.66929" class="st6"/>
				<text x="6" y="241.71" class="st7" v:langID="1033"><v:paragraph/><v:tabList/>Area 25</text>			</g>
			<g id="shape219-25" v:mID="219" v:groupContext="shape" transform="translate(-6.39488E-014,-253.363)">
				<title>Rectangle</title>
				<desc>Area 34</desc>
				<v:userDefs>
					<v:ud v:nameU="visVersion" v:val="VT0(15):26"/>
				</v:userDefs>
				<v:textBlock v:margins="rect(4,4,4,6)" v:tabSpace="42.5197" v:verticalAlign="0"/>
				<v:textRect cx="114.844" cy="296.907" width="229.69" height="85.0879"/>
				<rect x="0" y="254.363" width="229.688" height="85.0879" rx="5.66929" ry="5.66929" class="st8"/>
				<text x="6" y="269.16" class="st7" v:langID="1033"><v:paragraph/><v:tabList/>Area 34</text>			</g>
			<g id="shape220-28" v:mID="220" v:groupContext="shape">
				<title>Rectangle.220</title>
				<desc>Area 0.0.0.5</desc>
				<v:userDefs>
					<v:ud v:nameU="visVersion" v:val="VT0(15):26"/>
				</v:userDefs>
				<v:textBlock v:margins="rect(4,4,4,6)" v:tabSpace="42.5197" v:verticalAlign="0"/>
				<v:textRect cx="114.844" cy="283.182" width="229.69" height="112.539"/>
				<rect x="0" y="226.912" width="229.688" height="112.539" rx="5.66929" ry="5.66929" class="st9"/>
				<text x="6" y="241.71" class="st7" v:langID="1033"><v:paragraph/><v:tabList/>Area 0.0.0.5</text>			</g>
			<g id="shape222-31" v:mID="222" v:groupContext="shape" transform="translate(242.826,0)">
				<title>Rectangle.222</title>
				<desc>Area 0 (Backbone)</desc>
				<v:userDefs>
					<v:ud v:nameU="visVersion" v:val="VT0(15):26"/>
				</v:userDefs>
				<v:textBlock v:margins="rect(4,4,4,10)" v:tabSpace="42.5197"/>
				<v:textRect cx="88.351" cy="170.226" width="176.71" height="338.451"/>
				<rect x="0" y="0.999999" width="176.702" height="338.451" rx="5.66929" ry="5.66929" class="st10"/>
				<text x="10" y="166.03" class="st11" v:langID="1033"><v:paragraph/><v:tabList/>Area 0<v:newlineChar/><tspan x="10"
							dy="1.2em" class="st5">(</tspan><tspan class="st5">Backbone</tspan><tspan class="st5">)</tspan></text>			</g>
			<g id="group241-37" transform="translate(217.155,-234.841)" v:mID="241" v:groupContext="group">
				<title>Sheet.241</title>
				<g id="group148-38" v:mID="148" v:groupContext="group">
					<title>Sheet.148</title>
					<g id="shape149-39" v:mID="149" v:groupContext="shape" transform="translate(0.0776707,0)">
						<title>Sheet.149</title>
						<path d="M50.87 330.73 C50.87 330.73 50.87 330.73 50.87 330.73 C50.87 335.56 39.46 339.45 25.48 339.45 C11.42
									 339.45 0 335.56 0 330.73 C0 325.9 11.42 322 25.48 322 C39.46 322 50.87 325.9 50.87 330.73 Z"
								class="st12"/>
					</g>
					<g id="shape150-41" v:mID="150" v:groupContext="shape" transform="translate(0.0776707,0)">
						<title>Sheet.150</title>
						<path d="M50.87 330.73 C50.87 330.73 50.87 330.73 50.87 330.73 C50.87 335.56 39.46 339.45 25.48 339.45 C11.42
									 339.45 0 335.56 0 330.73 C0 325.9 11.42 322 25.48 322 C39.46 322 50.87 325.9 50.87 330.73"
								class="st13"/>
					</g>
					<g id="shape151-44" v:mID="151" v:groupContext="shape" transform="translate(3.9968E-015,-8.4899)">
						<title>Sheet.151</title>
						<path d="M0 326.99 L0 339.45 L50.95 339.45 L50.95 326.99 L0 326.99 L0 326.99 L0 326.99 Z" class="st12"/>
					</g>
					<g id="shape152-46" v:mID="152" v:groupContext="shape" transform="translate(0.0776707,-12.4622)">
						<title>Sheet.152</title>
						<path d="M50.87 330.73 C50.87 330.73 50.87 330.73 50.87 330.73 C50.87 335.56 39.46 339.45 25.48 339.45 C11.42
									 339.45 0 335.56 0 330.73 C0 325.9 11.42 322 25.48 322 C39.46 322 50.87 325.9 50.87 330.73 Z"
								class="st14"/>
					</g>
					<g id="shape153-48" v:mID="153" v:groupContext="shape" transform="translate(0.0776707,-12.4622)">
						<title>Sheet.153</title>
						<path d="M50.87 330.73 C50.87 330.73 50.87 330.73 50.87 330.73 C50.87 335.56 39.46 339.45 25.48 339.45 C11.42
									 339.45 0 335.56 0 330.73 C0 325.9 11.42 322 25.48 322 C39.46 322 50.87 325.9 50.87 330.73"
								class="st15"/>
					</g>
					<g id="shape154-51" v:mID="154" v:groupContext="shape" transform="translate(26.175,-21.8868)">
						<title>Sheet.154</title>
						<path d="M0 338.2 L3.73 339.45 L12.58 335.95 L16.7 336.96 L14.52 333.77 L3.88 333.77 L8.31 334.86 L0 338.2
									 L0 338.2 L0 338.2 Z" class="st14"/>
					</g>
					<g id="shape155-53" v:mID="155" v:groupContext="shape" transform="translate(7.84474,-15.1105)">
						<title>Sheet.155</title>
						<path d="M16.78 335.01 L13.05 333.77 L4.19 337.35 L0 336.34 L2.25 339.45 L12.89 339.45 L8.39 338.36 L16.78
									 335.01 L16.78 335.01 L16.78 335.01 Z" class="st14"/>
					</g>
					<g id="shape156-55" v:mID="156" v:groupContext="shape" transform="translate(8.77678,-22.0426)">
						<title>Sheet.156</title>
						<path d="M0 335.01 L3.73 333.77 L12.58 337.35 L16.78 336.34 L14.6 339.45 L3.88 339.45 L8.39 338.36 L0 335.01
									 L0 335.01 L0 335.01 Z" class="st14"/>
					</g>
					<g id="shape157-57" v:mID="157" v:groupContext="shape" transform="translate(25.6313,-14.721)">
						<title>Sheet.157</title>
						<path d="M16.7 338.2 L12.97 339.45 L4.12 335.95 L0 336.96 L2.17 333.77 L12.82 333.77 L8.39 334.86 L16.7 338.2
									 L16.7 338.2 L16.7 338.2 Z" class="st14"/>
					</g>
					<g id="shape158-59" v:mID="158" v:groupContext="shape" transform="translate(26.4857,-21.5753)">
						<title>Sheet.158</title>
						<path d="M0 338.2 L3.73 339.45 L12.58 335.95 L16.7 336.96 L14.52 333.77 L3.88 333.77 L8.31 334.86 L0 338.2
									 L0 338.2 L0 338.2 Z" class="st16"/>
					</g>
					<g id="shape159-61" v:mID="159" v:groupContext="shape" transform="translate(8.15542,-14.7989)">
						<title>Sheet.159</title>
						<path d="M16.78 335.01 L13.05 333.77 L4.19 337.35 L0 336.34 L2.25 339.45 L12.89 339.45 L8.39 338.36 L16.78
									 335.01 L16.78 335.01 L16.78 335.01 Z" class="st16"/>
					</g>
					<g id="shape160-63" v:mID="160" v:groupContext="shape" transform="translate(9.08747,-21.731)">
						<title>Sheet.160</title>
						<path d="M0 335.01 L3.73 333.77 L12.58 337.35 L16.78 336.34 L14.6 339.45 L3.88 339.45 L8.39 338.36 L0 335.01
									 L0 335.01 L0 335.01 Z" class="st16"/>
					</g>
					<g id="shape161-65" v:mID="161" v:groupContext="shape" transform="translate(25.942,-14.4095)">
						<title>Sheet.161</title>
						<path d="M16.7 338.2 L12.97 339.45 L4.12 335.95 L0 336.96 L2.17 333.77 L12.82 333.77 L8.39 334.86 L16.7 338.2
									 L16.7 338.2 L16.7 338.2 Z" class="st16"/>
					</g>
					<g id="shape162-67" v:mID="162" v:groupContext="shape" transform="translate(0.0776706,-8.4899)">
						<title>Sheet.162</title>
						<path d="M0 326.91 L0 339.45" class="st13"/>
					</g>
					<g id="shape163-70" v:mID="163" v:groupContext="shape" transform="translate(50.9519,-8.4899)">
						<title>Sheet.163</title>
						<path d="M0 326.91 L0 339.45" class="st13"/>
					</g>
				</g>
				<g id="shape164-73" v:mID="164" v:groupContext="shape" transform="translate(0.0776707,-0.188976)">
					<title>Sheet.164</title>
					<desc>SW1</desc>
					<v:userDefs/>
					<v:textBlock v:margins="rect(4,4,4,4)" v:tabSpace="42.5197"/>
					<v:textRect cx="25.6321" cy="333.744" width="51.27" height="11.4132"/>
					<rect x="0" y="328.038" width="51.2641" height="11.4132" class="st17"/>
					<text x="13.38" y="336.22" class="st18" v:langID="1033"><v:paragraph v:spLine="-1.1" v:horizAlign="1"/><v:tabList/>ABR1</text>				</g>
			</g>
			<g id="group242-76" transform="translate(217.155,-66.922)" v:mID="242" v:groupContext="group">
				<title>Sheet.242</title>
				<g id="group166-77" v:mID="166" v:groupContext="group">
					<title>Sheet.166</title>
					<g id="shape167-78" v:mID="167" v:groupContext="shape" transform="translate(0.0776707,0)">
						<title>Sheet.167</title>
						<path d="M50.87 330.73 C50.87 330.73 50.87 330.73 50.87 330.73 C50.87 335.56 39.46 339.45 25.48 339.45 C11.42
									 339.45 0 335.56 0 330.73 C0 325.9 11.42 322 25.48 322 C39.46 322 50.87 325.9 50.87 330.73 Z"
								class="st12"/>
					</g>
					<g id="shape168-80" v:mID="168" v:groupContext="shape" transform="translate(0.0776707,0)">
						<title>Sheet.168</title>
						<path d="M50.87 330.73 C50.87 330.73 50.87 330.73 50.87 330.73 C50.87 335.56 39.46 339.45 25.48 339.45 C11.42
									 339.45 0 335.56 0 330.73 C0 325.9 11.42 322 25.48 322 C39.46 322 50.87 325.9 50.87 330.73"
								class="st13"/>
					</g>
					<g id="shape169-83" v:mID="169" v:groupContext="shape" transform="translate(3.9968E-015,-8.4899)">
						<title>Sheet.169</title>
						<path d="M0 326.99 L0 339.45 L50.95 339.45 L50.95 326.99 L0 326.99 L0 326.99 L0 326.99 Z" class="st12"/>
					</g>
					<g id="shape170-85" v:mID="170" v:groupContext="shape" transform="translate(0.0776707,-12.4622)">
						<title>Sheet.170</title>
						<path d="M50.87 330.73 C50.87 330.73 50.87 330.73 50.87 330.73 C50.87 335.56 39.46 339.45 25.48 339.45 C11.42
									 339.45 0 335.56 0 330.73 C0 325.9 11.42 322 25.48 322 C39.46 322 50.87 325.9 50.87 330.73 Z"
								class="st14"/>
					</g>
					<g id="shape171-87" v:mID="171" v:groupContext="shape" transform="translate(0.0776707,-12.4622)">
						<title>Sheet.171</title>
						<path d="M50.87 330.73 C50.87 330.73 50.87 330.73 50.87 330.73 C50.87 335.56 39.46 339.45 25.48 339.45 C11.42
									 339.45 0 335.56 0 330.73 C0 325.9 11.42 322 25.48 322 C39.46 322 50.87 325.9 50.87 330.73"
								class="st15"/>
					</g>
					<g id="shape172-90" v:mID="172" v:groupContext="shape" transform="translate(26.175,-21.8868)">
						<title>Sheet.172</title>
						<path d="M0 338.2 L3.73 339.45 L12.58 335.95 L16.7 336.96 L14.52 333.77 L3.88 333.77 L8.31 334.86 L0 338.2
									 L0 338.2 L0 338.2 Z" class="st14"/>
					</g>
					<g id="shape173-92" v:mID="173" v:groupContext="shape" transform="translate(7.84474,-15.1105)">
						<title>Sheet.173</title>
						<path d="M16.78 335.01 L13.05 333.77 L4.19 337.35 L0 336.34 L2.25 339.45 L12.89 339.45 L8.39 338.36 L16.78
									 335.01 L16.78 335.01 L16.78 335.01 Z" class="st14"/>
					</g>
					<g id="shape174-94" v:mID="174" v:groupContext="shape" transform="translate(8.77678,-22.0426)">
						<title>Sheet.174</title>
						<path d="M0 335.01 L3.73 333.77 L12.58 337.35 L16.78 336.34 L14.6 339.45 L3.88 339.45 L8.39 338.36 L0 335.01
									 L0 335.01 L0 335.01 Z" class="st14"/>
					</g>
					<g id="shape175-96" v:mID="175" v:groupContext="shape" transform="translate(25.6313,-14.721)">
						<title>Sheet.175</title>
						<path d="M16.7 338.2 L12.97 339.45 L4.12 335.95 L0 336.96 L2.17 333.77 L12.82 333.77 L8.39 334.86 L16.7 338.2
									 L16.7 338.2 L16.7 338.2 Z" class="st14"/>
					</g>
					<g id="shape176-98" v:mID="176" v:groupContext="shape" transform="translate(26.4857,-21.5753)">
						<title>Sheet.176</title>
						<path d="M0 338.2 L3.73 339.45 L12.58 335.95 L16.7 336.96 L14.52 333.77 L3.88 333.77 L8.31 334.86 L0 338.2
									 L0 338.2 L0 338.2 Z" class="st16"/>
					</g>
					<g id="shape177-100" v:mID="177" v:groupContext="shape" transform="translate(8.15542,-14.7989)">
						<title>Sheet.177</title>
						<path d="M16.78 335.01 L13.05 333.77 L4.19 337.35 L0 336.34 L2.25 339.45 L12.89 339.45 L8.39 338.36 L16.78
									 335.01 L16.78 335.01 L16.78 335.01 Z" class="st16"/>
					</g>
					<g id="shape178-102" v:mID="178" v:groupContext="shape" transform="translate(9.08747,-21.731)">
						<title>Sheet.178</title>
						<path d="M0 335.01 L3.73 333.77 L12.58 337.35 L16.78 336.34 L14.6 339.45 L3.88 339.45 L8.39 338.36 L0 335.01
									 L0 335.01 L0 335.01 Z" class="st16"/>
					</g>
					<g id="shape179-104" v:mID="179" v:groupContext="shape" transform="translate(25.942,-14.4095)">
						<title>Sheet.179</title>
						<path d="M16.7 338.2 L12.97 339.45 L4.12 335.95 L0 336.96 L2.17 333.77 L12.82 333.77 L8.39 334.86 L16.7 338.2
									 L16.7 338.2 L16.7 338.2 Z" class="st16"/>
					</g>
					<g id="shape180-106" v:mID="180" v:groupContext="shape" transform="translate(0.0776706,-8.4899)">
						<title>Sheet.180</title>
						<path d="M0 326.91 L0 339.45" class="st13"/>
					</g>
					<g id="shape181-109" v:mID="181" v:groupContext="shape" transform="translate(50.9519,-8.4899)">
						<title>Sheet.181</title>
						<path d="M0 326.91 L0 339.45" class="st13"/>
					</g>
				</g>
				<g id="shape182-112" v:mID="182" v:groupContext="shape" transform="translate(0.0776707,-0.188976)">
					<title>Sheet.182</title>
					<desc>SW1</desc>
					<v:userDefs/>
					<v:textBlock v:margins="rect(4,4,4,4)" v:tabSpace="42.5197"/>
					<v:textRect cx="25.6321" cy="333.744" width="51.27" height="11.4132"/>
					<rect x="0" y="328.038" width="51.2641" height="11.4132" class="st17"/>
					<text x="13.38" y="336.22" class="st18" v:langID="1033"><v:paragraph v:spLine="-1.1" v:horizAlign="1"/><v:tabList/>ABR2</text>				</g>
			</g>
			<g id="group243-115" transform="translate(308.817,-195.156)" v:mID="243" v:groupContext="group">
				<title>Sheet.243</title>
				<g id="group130-116" v:mID="130" v:groupContext="group">
					<title>Sheet.130</title>
					<g id="shape131-117" v:mID="131" v:groupContext="shape" transform="translate(0.0776707,0)">
						<title>Sheet.131</title>
						<path d="M50.87 330.73 C50.87 330.73 50.87 330.73 50.87 330.73 C50.87 335.56 39.46 339.45 25.48 339.45 C11.42
									 339.45 0 335.56 0 330.73 C0 325.9 11.42 322 25.48 322 C39.46 322 50.87 325.9 50.87 330.73 Z"
								class="st12"/>
					</g>
					<g id="shape132-119" v:mID="132" v:groupContext="shape" transform="translate(0.0776707,0)">
						<title>Sheet.132</title>
						<path d="M50.87 330.73 C50.87 330.73 50.87 330.73 50.87 330.73 C50.87 335.56 39.46 339.45 25.48 339.45 C11.42
									 339.45 0 335.56 0 330.73 C0 325.9 11.42 322 25.48 322 C39.46 322 50.87 325.9 50.87 330.73"
								class="st13"/>
					</g>
					<g id="shape133-122" v:mID="133" v:groupContext="shape" transform="translate(3.9968E-015,-8.4899)">
						<title>Sheet.133</title>
						<path d="M0 326.99 L0 339.45 L50.95 339.45 L50.95 326.99 L0 326.99 L0 326.99 L0 326.99 Z" class="st12"/>
					</g>
					<g id="shape134-124" v:mID="134" v:groupContext="shape" transform="translate(0.0776707,-12.4622)">
						<title>Sheet.134</title>
						<path d="M50.87 330.73 C50.87 330.73 50.87 330.73 50.87 330.73 C50.87 335.56 39.46 339.45 25.48 339.45 C11.42
									 339.45 0 335.56 0 330.73 C0 325.9 11.42 322 25.48 322 C39.46 322 50.87 325.9 50.87 330.73 Z"
								class="st14"/>
					</g>
					<g id="shape135-126" v:mID="135" v:groupContext="shape" transform="translate(0.0776707,-12.4622)">
						<title>Sheet.135</title>
						<path d="M50.87 330.73 C50.87 330.73 50.87 330.73 50.87 330.73 C50.87 335.56 39.46 339.45 25.48 339.45 C11.42
									 339.45 0 335.56 0 330.73 C0 325.9 11.42 322 25.48 322 C39.46 322 50.87 325.9 50.87 330.73"
								class="st15"/>
					</g>
					<g id="shape136-129" v:mID="136" v:groupContext="shape" transform="translate(26.175,-21.8868)">
						<title>Sheet.136</title>
						<path d="M0 338.2 L3.73 339.45 L12.58 335.95 L16.7 336.96 L14.52 333.77 L3.88 333.77 L8.31 334.86 L0 338.2
									 L0 338.2 L0 338.2 Z" class="st14"/>
					</g>
					<g id="shape137-131" v:mID="137" v:groupContext="shape" transform="translate(7.84474,-15.1105)">
						<title>Sheet.137</title>
						<path d="M16.78 335.01 L13.05 333.77 L4.19 337.35 L0 336.34 L2.25 339.45 L12.89 339.45 L8.39 338.36 L16.78
									 335.01 L16.78 335.01 L16.78 335.01 Z" class="st14"/>
					</g>
					<g id="shape138-133" v:mID="138" v:groupContext="shape" transform="translate(8.77678,-22.0426)">
						<title>Sheet.138</title>
						<path d="M0 335.01 L3.73 333.77 L12.58 337.35 L16.78 336.34 L14.6 339.45 L3.88 339.45 L8.39 338.36 L0 335.01
									 L0 335.01 L0 335.01 Z" class="st14"/>
					</g>
					<g id="shape139-135" v:mID="139" v:groupContext="shape" transform="translate(25.6313,-14.721)">
						<title>Sheet.139</title>
						<path d="M16.7 338.2 L12.97 339.45 L4.12 335.95 L0 336.96 L2.17 333.77 L12.82 333.77 L8.39 334.86 L16.7 338.2
									 L16.7 338.2 L16.7 338.2 Z" class="st14"/>
					</g>
					<g id="shape140-137" v:mID="140" v:groupContext="shape" transform="translate(26.4857,-21.5753)">
						<title>Sheet.140</title>
						<path d="M0 338.2 L3.73 339.45 L12.58 335.95 L16.7 336.96 L14.52 333.77 L3.88 333.77 L8.31 334.86 L0 338.2
									 L0 338.2 L0 338.2 Z" class="st16"/>
					</g>
					<g id="shape141-139" v:mID="141" v:groupContext="shape" transform="translate(8.15542,-14.7989)">
						<title>Sheet.141</title>
						<path d="M16.78 335.01 L13.05 333.77 L4.19 337.35 L0 336.34 L2.25 339.45 L12.89 339.45 L8.39 338.36 L16.78
									 335.01 L16.78 335.01 L16.78 335.01 Z" class="st16"/>
					</g>
					<g id="shape142-141" v:mID="142" v:groupContext="shape" transform="translate(9.08747,-21.731)">
						<title>Sheet.142</title>
						<path d="M0 335.01 L3.73 333.77 L12.58 337.35 L16.78 336.34 L14.6 339.45 L3.88 339.45 L8.39 338.36 L0 335.01
									 L0 335.01 L0 335.01 Z" class="st16"/>
					</g>
					<g id="shape143-143" v:mID="143" v:groupContext="shape" transform="translate(25.942,-14.4095)">
						<title>Sheet.143</title>
						<path d="M16.7 338.2 L12.97 339.45 L4.12 335.95 L0 336.96 L2.17 333.77 L12.82 333.77 L8.39 334.86 L16.7 338.2
									 L16.7 338.2 L16.7 338.2 Z" class="st16"/>
					</g>
					<g id="shape144-145" v:mID="144" v:groupContext="shape" transform="translate(0.0776706,-8.4899)">
						<title>Sheet.144</title>
						<path d="M0 326.91 L0 339.45" class="st13"/>
					</g>
					<g id="shape145-148" v:mID="145" v:groupContext="shape" transform="translate(50.9519,-8.4899)">
						<title>Sheet.145</title>
						<path d="M0 326.91 L0 339.45" class="st13"/>
					</g>
				</g>
				<g id="shape146-151" v:mID="146" v:groupContext="shape" transform="translate(0.0776707,-0.188976)">
					<title>Sheet.146</title>
					<desc>SW1</desc>
					<v:userDefs/>
					<v:textBlock v:margins="rect(4,4,4,4)" v:tabSpace="42.5197"/>
					<v:textRect cx="25.6321" cy="333.744" width="51.27" height="11.4132"/>
					<rect x="0" y="328.038" width="51.2641" height="11.4132" class="st17"/>
					<text x="16.63" y="336.22" class="st18" v:langID="1033"><v:paragraph v:spLine="-1.1" v:horizAlign="1"/><v:tabList/>BB1</text>				</g>
			</g>
			<g id="group244-154" transform="translate(308.817,-91.0556)" v:mID="244" v:groupContext="group">
				<title>Sheet.244</title>
				<g id="group224-155" v:mID="224" v:groupContext="group">
					<title>Sheet.224</title>
					<g id="shape225-156" v:mID="225" v:groupContext="shape" transform="translate(0.0776707,0)">
						<title>Sheet.225</title>
						<path d="M50.87 330.73 C50.87 330.73 50.87 330.73 50.87 330.73 C50.87 335.56 39.46 339.45 25.48 339.45 C11.42
									 339.45 0 335.56 0 330.73 C0 325.9 11.42 322 25.48 322 C39.46 322 50.87 325.9 50.87 330.73 Z"
								class="st12"/>
					</g>
					<g id="shape226-158" v:mID="226" v:groupContext="shape" transform="translate(0.0776707,0)">
						<title>Sheet.226</title>
						<path d="M50.87 330.73 C50.87 330.73 50.87 330.73 50.87 330.73 C50.87 335.56 39.46 339.45 25.48 339.45 C11.42
									 339.45 0 335.56 0 330.73 C0 325.9 11.42 322 25.48 322 C39.46 322 50.87 325.9 50.87 330.73"
								class="st13"/>
					</g>
					<g id="shape227-161" v:mID="227" v:groupContext="shape" transform="translate(3.9968E-015,-8.4899)">
						<title>Sheet.227</title>
						<path d="M0 326.99 L0 339.45 L50.95 339.45 L50.95 326.99 L0 326.99 L0 326.99 L0 326.99 Z" class="st12"/>
					</g>
					<g id="shape228-163" v:mID="228" v:groupContext="shape" transform="translate(0.0776707,-12.4622)">
						<title>Sheet.228</title>
						<path d="M50.87 330.73 C50.87 330.73 50.87 330.73 50.87 330.73 C50.87 335.56 39.46 339.45 25.48 339.45 C11.42
									 339.45 0 335.56 0 330.73 C0 325.9 11.42 322 25.48 322 C39.46 322 50.87 325.9 50.87 330.73 Z"
								class="st14"/>
					</g>
					<g id="shape229-165" v:mID="229" v:groupContext="shape" transform="translate(0.0776707,-12.4622)">
						<title>Sheet.229</title>
						<path d="M50.87 330.73 C50.87 330.73 50.87 330.73 50.87 330.73 C50.87 335.56 39.46 339.45 25.48 339.45 C11.42
									 339.45 0 335.56 0 330.73 C0 325.9 11.42 322 25.48 322 C39.46 322 50.87 325.9 50.87 330.73"
								class="st15"/>
					</g>
					<g id="shape230-168" v:mID="230" v:groupContext="shape" transform="translate(26.175,-21.8868)">
						<title>Sheet.230</title>
						<path d="M0 338.2 L3.73 339.45 L12.58 335.95 L16.7 336.96 L14.52 333.77 L3.88 333.77 L8.31 334.86 L0 338.2
									 L0 338.2 L0 338.2 Z" class="st14"/>
					</g>
					<g id="shape231-170" v:mID="231" v:groupContext="shape" transform="translate(7.84474,-15.1105)">
						<title>Sheet.231</title>
						<path d="M16.78 335.01 L13.05 333.77 L4.19 337.35 L0 336.34 L2.25 339.45 L12.89 339.45 L8.39 338.36 L16.78
									 335.01 L16.78 335.01 L16.78 335.01 Z" class="st14"/>
					</g>
					<g id="shape232-172" v:mID="232" v:groupContext="shape" transform="translate(8.77678,-22.0426)">
						<title>Sheet.232</title>
						<path d="M0 335.01 L3.73 333.77 L12.58 337.35 L16.78 336.34 L14.6 339.45 L3.88 339.45 L8.39 338.36 L0 335.01
									 L0 335.01 L0 335.01 Z" class="st14"/>
					</g>
					<g id="shape233-174" v:mID="233" v:groupContext="shape" transform="translate(25.6313,-14.721)">
						<title>Sheet.233</title>
						<path d="M16.7 338.2 L12.97 339.45 L4.12 335.95 L0 336.96 L2.17 333.77 L12.82 333.77 L8.39 334.86 L16.7 338.2
									 L16.7 338.2 L16.7 338.2 Z" class="st14"/>
					</g>
					<g id="shape234-176" v:mID="234" v:groupContext="shape" transform="translate(26.4857,-21.5753)">
						<title>Sheet.234</title>
						<path d="M0 338.2 L3.73 339.45 L12.58 335.95 L16.7 336.96 L14.52 333.77 L3.88 333.77 L8.31 334.86 L0 338.2
									 L0 338.2 L0 338.2 Z" class="st16"/>
					</g>
					<g id="shape235-178" v:mID="235" v:groupContext="shape" transform="translate(8.15542,-14.7989)">
						<title>Sheet.235</title>
						<path d="M16.78 335.01 L13.05 333.77 L4.19 337.35 L0 336.34 L2.25 339.45 L12.89 339.45 L8.39 338.36 L16.78
									 335.01 L16.78 335.01 L16.78 335.01 Z" class="st16"/>
					</g>
					<g id="shape236-180" v:mID="236" v:groupContext="shape" transform="translate(9.08747,-21.731)">
						<title>Sheet.236</title>
						<path d="M0 335.01 L3.73 333.77 L12.58 337.35 L16.78 336.34 L14.6 339.45 L3.88 339.45 L8.39 338.36 L0 335.01
									 L0 335.01 L0 335.01 Z" class="st16"/>
					</g>
					<g id="shape237-182" v:mID="237" v:groupContext="shape" transform="translate(25.942,-14.4095)">
						<title>Sheet.237</title>
						<path d="M16.7 338.2 L12.97 339.45 L4.12 335.95 L0 336.96 L2.17 333.77 L12.82 333.77 L8.39 334.86 L16.7 338.2
									 L16.7 338.2 L16.7 338.2 Z" class="st16"/>
					</g>
					<g id="shape238-184" v:mID="238" v:groupContext="shape" transform="translate(0.0776706,-8.4899)">
						<title>Sheet.238</title>
						<path d="M0 326.91 L0 339.45" class="st13"/>
					</g>
					<g id="shape239-187" v:mID="239" v:groupContext="shape" transform="translate(50.9519,-8.4899)">
						<title>Sheet.239</title>
						<path d="M0 326.91 L0 339.45" class="st13"/>
					</g>
				</g>
				<g id="shape240-190" v:mID="240" v:groupContext="shape" transform="translate(0.0776707,-0.188976)">
					<title>Sheet.240</title>
					<desc>SW1</desc>
					<v:userDefs/>
					<v:textBlock v:margins="rect(4,4,4,4)" v:tabSpace="42.5197"/>
					<v:textRect cx="25.6321" cy="333.744" width="51.27" height="11.4132"/>
					<rect x="0" y="328.038" width="51.2641" height="11.4132" class="st17"/>
					<text x="16.63" y="336.22" class="st18" v:langID="1033"><v:paragraph v:spLine="-1.1" v:horizAlign="1"/><v:tabList/>BB2</text>				</g>
			</g>
			<g id="group245-193" transform="translate(398.332,-146.331)" v:mID="245" v:groupContext="group">
				<title>Sheet.245</title>
				<g id="group184-194" v:mID="184" v:groupContext="group">
					<title>Sheet.184</title>
					<g id="shape185-195" v:mID="185" v:groupContext="shape" transform="translate(0.0776707,0)">
						<title>Sheet.185</title>
						<path d="M50.87 330.73 C50.87 330.73 50.87 330.73 50.87 330.73 C50.87 335.56 39.46 339.45 25.48 339.45 C11.42
									 339.45 0 335.56 0 330.73 C0 325.9 11.42 322 25.48 322 C39.46 322 50.87 325.9 50.87 330.73 Z"
								class="st12"/>
					</g>
					<g id="shape186-197" v:mID="186" v:groupContext="shape" transform="translate(0.0776707,0)">
						<title>Sheet.186</title>
						<path d="M50.87 330.73 C50.87 330.73 50.87 330.73 50.87 330.73 C50.87 335.56 39.46 339.45 25.48 339.45 C11.42
									 339.45 0 335.56 0 330.73 C0 325.9 11.42 322 25.48 322 C39.46 322 50.87 325.9 50.87 330.73"
								class="st13"/>
					</g>
					<g id="shape187-200" v:mID="187" v:groupContext="shape" transform="translate(3.9968E-015,-8.4899)">
						<title>Sheet.187</title>
						<path d="M0 326.99 L0 339.45 L50.95 339.45 L50.95 326.99 L0 326.99 L0 326.99 L0 326.99 Z" class="st12"/>
					</g>
					<g id="shape188-202" v:mID="188" v:groupContext="shape" transform="translate(0.0776707,-12.4622)">
						<title>Sheet.188</title>
						<path d="M50.87 330.73 C50.87 330.73 50.87 330.73 50.87 330.73 C50.87 335.56 39.46 339.45 25.48 339.45 C11.42
									 339.45 0 335.56 0 330.73 C0 325.9 11.42 322 25.48 322 C39.46 322 50.87 325.9 50.87 330.73 Z"
								class="st14"/>
					</g>
					<g id="shape189-204" v:mID="189" v:groupContext="shape" transform="translate(0.0776707,-12.4622)">
						<title>Sheet.189</title>
						<path d="M50.87 330.73 C50.87 330.73 50.87 330.73 50.87 330.73 C50.87 335.56 39.46 339.45 25.48 339.45 C11.42
									 339.45 0 335.56 0 330.73 C0 325.9 11.42 322 25.48 322 C39.46 322 50.87 325.9 50.87 330.73"
								class="st15"/>
					</g>
					<g id="shape190-207" v:mID="190" v:groupContext="shape" transform="translate(26.175,-21.8868)">
						<title>Sheet.190</title>
						<path d="M0 338.2 L3.73 339.45 L12.58 335.95 L16.7 336.96 L14.52 333.77 L3.88 333.77 L8.31 334.86 L0 338.2
									 L0 338.2 L0 338.2 Z" class="st14"/>
					</g>
					<g id="shape191-209" v:mID="191" v:groupContext="shape" transform="translate(7.84474,-15.1105)">
						<title>Sheet.191</title>
						<path d="M16.78 335.01 L13.05 333.77 L4.19 337.35 L0 336.34 L2.25 339.45 L12.89 339.45 L8.39 338.36 L16.78
									 335.01 L16.78 335.01 L16.78 335.01 Z" class="st14"/>
					</g>
					<g id="shape192-211" v:mID="192" v:groupContext="shape" transform="translate(8.77678,-22.0426)">
						<title>Sheet.192</title>
						<path d="M0 335.01 L3.73 333.77 L12.58 337.35 L16.78 336.34 L14.6 339.45 L3.88 339.45 L8.39 338.36 L0 335.01
									 L0 335.01 L0 335.01 Z" class="st14"/>
					</g>
					<g id="shape193-213" v:mID="193" v:groupContext="shape" transform="translate(25.6313,-14.721)">
						<title>Sheet.193</title>
						<path d="M16.7 338.2 L12.97 339.45 L4.12 335.95 L0 336.96 L2.17 333.77 L12.82 333.77 L8.39 334.86 L16.7 338.2
									 L16.7 338.2 L16.7 338.2 Z" class="st14"/>
					</g>
					<g id="shape194-215" v:mID="194" v:groupContext="shape" transform="translate(26.4857,-21.5753)">
						<title>Sheet.194</title>
						<path d="M0 338.2 L3.73 339.45 L12.58 335.95 L16.7 336.96 L14.52 333.77 L3.88 333.77 L8.31 334.86 L0 338.2
									 L0 338.2 L0 338.2 Z" class="st16"/>
					</g>
					<g id="shape195-217" v:mID="195" v:groupContext="shape" transform="translate(8.15542,-14.7989)">
						<title>Sheet.195</title>
						<path d="M16.78 335.01 L13.05 333.77 L4.19 337.35 L0 336.34 L2.25 339.45 L12.89 339.45 L8.39 338.36 L16.78
									 335.01 L16.78 335.01 L16.78 335.01 Z" class="st16"/>
					</g>
					<g id="shape196-219" v:mID="196" v:groupContext="shape" transform="translate(9.08747,-21.731)">
						<title>Sheet.196</title>
						<path d="M0 335.01 L3.73 333.77 L12.58 337.35 L16.78 336.34 L14.6 339.45 L3.88 339.45 L8.39 338.36 L0 335.01
									 L0 335.01 L0 335.01 Z" class="st16"/>
					</g>
					<g id="shape197-221" v:mID="197" v:groupContext="shape" transform="translate(25.942,-14.4095)">
						<title>Sheet.197</title>
						<path d="M16.7 338.2 L12.97 339.45 L4.12 335.95 L0 336.96 L2.17 333.77 L12.82 333.77 L8.39 334.86 L16.7 338.2
									 L16.7 338.2 L16.7 338.2 Z" class="st16"/>
					</g>
					<g id="shape198-223" v:mID="198" v:groupContext="shape" transform="translate(0.0776706,-8.4899)">
						<title>Sheet.198</title>
						<path d="M0 326.91 L0 339.45" class="st13"/>
					</g>
					<g id="shape199-226" v:mID="199" v:groupContext="shape" transform="translate(50.9519,-8.4899)">
						<title>Sheet.199</title>
						<path d="M0 326.91 L0 339.45" class="st13"/>
					</g>
				</g>
				<g id="shape200-229" v:mID="200" v:groupContext="shape" transform="translate(0.0776707,-0.188976)">
					<title>Sheet.200</title>
					<desc>SW1</desc>
					<v:userDefs/>
					<v:textBlock v:margins="rect(4,4,4,4)" v:tabSpace="42.5197"/>
					<v:textRect cx="25.6321" cy="333.744" width="51.27" height="11.4132"/>
					<rect x="0" y="328.038" width="51.2641" height="11.4132" class="st17"/>
					<text x="10.38" y="336.22" class="st18" v:langID="1033"><v:paragraph v:spLine="-1.1" v:horizAlign="1"/><v:tabList/>ASBR1</text>				</g>
			</g>
			<g id="shape285-232" v:mID="285" v:groupContext="shape" transform="translate(281.779,-261.383) rotate(21.1078)">
				<title>Sheet.285</title>
				<path d="M0 339.45 L61.76 339.45" class="st19"/>
			</g>
			<g id="shape286-235" v:mID="286" v:groupContext="shape" transform="translate(9.59071,-169.298) rotate(-26.5984)">
				<title>Sheet.286</title>
				<path d="M0 339.45 L66.57 339.45" class="st19"/>
			</g>
			<g id="shape287-238" v:mID="287" v:groupContext="shape" transform="translate(-88.6531,-52.6275) rotate(-47.4896)">
				<title>Sheet.287</title>
				<path d="M0 339.45 L92.29 339.45" class="st19"/>
			</g>
			<g id="shape288-241" v:mID="288" v:groupContext="shape" transform="translate(458.929,-180.79) rotate(34.1251)">
				<title>Sheet.288</title>
				<path d="M0 339.45 L45.48 339.45" class="st19"/>
			</g>
			<g id="shape289-244" v:mID="289" v:groupContext="shape" transform="translate(148.853,-59.2899) rotate(-21.0375)">
				<title>Sheet.289</title>
				<path d="M0 339.45 L39.48 339.45" class="st19"/>
			</g>
			<g id="shape290-247" v:mID="290" v:groupContext="shape" transform="translate(673.939,148.402) rotate(90)">
				<title>Sheet.290</title>
				<path d="M0 339.45 L65.2 339.45" class="st19"/>
			</g>
			<g id="shape291-250" v:mID="291" v:groupContext="shape" transform="translate(576.419,-117.54) rotate(39.575)">
				<title>Sheet.291</title>
				<path d="M0 339.45 L43.92 339.45" class="st19"/>
			</g>
			<g id="shape292-253" v:mID="292" v:groupContext="shape" transform="translate(123.368,-25.1151) rotate(-44.1406)">
				<title>Sheet.292</title>
				<path d="M0 339.45 L47.72 339.45" class="st19"/>
			</g>
			<g id="shape293-256" v:mID="293" v:groupContext="shape" transform="translate(141.832,-75.6719) rotate(-3.33425)">
				<title>Sheet.293</title>
				<path d="M0 339.45 L53.95 339.45" class="st19"/>
			</g>
			<g id="shape294-259" v:mID="294" v:groupContext="shape" transform="translate(-30.1078,24.1555) rotate(-34.3803)">
				<title>Sheet.294</title>
				<path d="M0 339.45 L65.26 339.45" class="st19"/>
			</g>
			<g id="shape296-262" v:mID="296" v:groupContext="shape" transform="translate(80.4456,-317.412)">
				<title>Sheet.296</title>
				<desc>Internal Router (all interface in Area 34)</desc>
				<v:textBlock v:margins="rect(4,4,4,4)" v:tabSpace="42.5197"/>
				<v:textRect cx="60.5202" cy="331.729" width="121.05" height="15.4443"/>
				<rect x="0" y="324.007" width="121.04" height="15.4443" class="st17"/>
				<text x="24.96" y="328.73" class="st20" v:langID="1033"><v:paragraph v:horizAlign="1"/><v:tabList/>Internal Router<v:newlineChar/><tspan
							x="7.44" dy="1.2em" class="st5">(</tspan><tspan class="st5">all interface in Area </tspan><tspan
							class="st5">34</tspan><tspan class="st5">)</tspan></text>			</g>
			<g id="group299-269" transform="translate(85.0394,-278.924)" v:mID="299" v:groupContext="group">
				<title>Sheet.299</title>
				<g id="shape297-270" v:mID="297" v:groupContext="shape" transform="translate(23.2315,661.68) rotate(180)">
					<title>Sheet.297</title>
					<path d="M0 339.45 L23.23 339.45" class="st19"/>
				</g>
				<g id="shape298-273" v:mID="298" v:groupContext="shape" transform="translate(339.451,308.27) rotate(90)">
					<title>Sheet.298</title>
					<path d="M0 339.45 L31.18 339.45" class="st19"/>
				</g>
			</g>
			<g id="group304-276" transform="translate(85.0394,-142.861)" v:mID="304" v:groupContext="group">
				<title>Sheet.304</title>
				<g id="shape301-277" v:mID="301" v:groupContext="shape" transform="translate(23.2315,620.694) rotate(180)">
					<title>Sheet.301</title>
					<path d="M0 339.45 L23.23 339.45" class="st19"/>
				</g>
				<g id="shape302-280" v:mID="302" v:groupContext="shape" transform="translate(339.451,267.284) rotate(90)">
					<title>Sheet.302</title>
					<path d="M0 339.45 L72.17 339.45" class="st19"/>
				</g>
				<g id="shape303-283" v:mID="303" v:groupContext="shape" transform="translate(23.2315,663.09) rotate(180)">
					<title>Sheet.303</title>
					<path d="M0 339.45 L23.23 339.45" class="st19"/>
				</g>
			</g>
			<g id="group305-286" transform="translate(85.0394,-20.389)" v:mID="305" v:groupContext="group">
				<title>Sheet.305</title>
				<g id="shape306-287" v:mID="306" v:groupContext="shape" transform="translate(23.2315,620.694) rotate(180)">
					<title>Sheet.306</title>
					<path d="M0 339.45 L23.23 339.45" class="st19"/>
				</g>
				<g id="shape307-290" v:mID="307" v:groupContext="shape" transform="translate(339.451,267.284) rotate(90)">
					<title>Sheet.307</title>
					<path d="M0 339.45 L72.17 339.45" class="st19"/>
				</g>
				<g id="shape308-293" v:mID="308" v:groupContext="shape" transform="translate(23.2315,663.09) rotate(180)">
					<title>Sheet.308</title>
					<path d="M0 339.45 L23.23 339.45" class="st19"/>
				</g>
			</g>
			<g id="group56-296" transform="translate(108.193,-281.275)" v:mID="56" v:groupContext="group">
				<title>Sheet.56</title>
				<g id="group57-297" v:mID="57" v:groupContext="group">
					<title>Sheet.57</title>
					<g id="shape58-298" v:mID="58" v:groupContext="shape" transform="translate(0.0776707,0)">
						<title>Sheet.58</title>
						<path d="M50.87 330.73 C50.87 330.73 50.87 330.73 50.87 330.73 C50.87 335.56 39.46 339.45 25.48 339.45 C11.42
									 339.45 0 335.56 0 330.73 C0 325.9 11.42 322 25.48 322 C39.46 322 50.87 325.9 50.87 330.73 Z"
								class="st12"/>
					</g>
					<g id="shape59-300" v:mID="59" v:groupContext="shape" transform="translate(0.0776707,0)">
						<title>Sheet.59</title>
						<path d="M50.87 330.73 C50.87 330.73 50.87 330.73 50.87 330.73 C50.87 335.56 39.46 339.45 25.48 339.45 C11.42
									 339.45 0 335.56 0 330.73 C0 325.9 11.42 322 25.48 322 C39.46 322 50.87 325.9 50.87 330.73"
								class="st13"/>
					</g>
					<g id="shape60-303" v:mID="60" v:groupContext="shape" transform="translate(3.9968E-015,-8.4899)">
						<title>Sheet.60</title>
						<path d="M0 326.99 L0 339.45 L50.95 339.45 L50.95 326.99 L0 326.99 L0 326.99 L0 326.99 Z" class="st12"/>
					</g>
					<g id="shape61-305" v:mID="61" v:groupContext="shape" transform="translate(0.0776707,-12.4622)">
						<title>Sheet.61</title>
						<path d="M50.87 330.73 C50.87 330.73 50.87 330.73 50.87 330.73 C50.87 335.56 39.46 339.45 25.48 339.45 C11.42
									 339.45 0 335.56 0 330.73 C0 325.9 11.42 322 25.48 322 C39.46 322 50.87 325.9 50.87 330.73 Z"
								class="st14"/>
					</g>
					<g id="shape62-307" v:mID="62" v:groupContext="shape" transform="translate(0.0776707,-12.4622)">
						<title>Sheet.62</title>
						<path d="M50.87 330.73 C50.87 330.73 50.87 330.73 50.87 330.73 C50.87 335.56 39.46 339.45 25.48 339.45 C11.42
									 339.45 0 335.56 0 330.73 C0 325.9 11.42 322 25.48 322 C39.46 322 50.87 325.9 50.87 330.73"
								class="st15"/>
					</g>
					<g id="shape63-310" v:mID="63" v:groupContext="shape" transform="translate(26.175,-21.8868)">
						<title>Sheet.63</title>
						<path d="M0 338.2 L3.73 339.45 L12.58 335.95 L16.7 336.96 L14.52 333.77 L3.88 333.77 L8.31 334.86 L0 338.2
									 L0 338.2 L0 338.2 Z" class="st14"/>
					</g>
					<g id="shape64-312" v:mID="64" v:groupContext="shape" transform="translate(7.84474,-15.1105)">
						<title>Sheet.64</title>
						<path d="M16.78 335.01 L13.05 333.77 L4.19 337.35 L0 336.34 L2.25 339.45 L12.89 339.45 L8.39 338.36 L16.78
									 335.01 L16.78 335.01 L16.78 335.01 Z" class="st14"/>
					</g>
					<g id="shape65-314" v:mID="65" v:groupContext="shape" transform="translate(8.77678,-22.0426)">
						<title>Sheet.65</title>
						<path d="M0 335.01 L3.73 333.77 L12.58 337.35 L16.78 336.34 L14.6 339.45 L3.88 339.45 L8.39 338.36 L0 335.01
									 L0 335.01 L0 335.01 Z" class="st14"/>
					</g>
					<g id="shape66-316" v:mID="66" v:groupContext="shape" transform="translate(25.6313,-14.721)">
						<title>Sheet.66</title>
						<path d="M16.7 338.2 L12.97 339.45 L4.12 335.95 L0 336.96 L2.17 333.77 L12.82 333.77 L8.39 334.86 L16.7 338.2
									 L16.7 338.2 L16.7 338.2 Z" class="st14"/>
					</g>
					<g id="shape67-318" v:mID="67" v:groupContext="shape" transform="translate(26.4857,-21.5753)">
						<title>Sheet.67</title>
						<path d="M0 338.2 L3.73 339.45 L12.58 335.95 L16.7 336.96 L14.52 333.77 L3.88 333.77 L8.31 334.86 L0 338.2
									 L0 338.2 L0 338.2 Z" class="st16"/>
					</g>
					<g id="shape68-320" v:mID="68" v:groupContext="shape" transform="translate(8.15542,-14.7989)">
						<title>Sheet.68</title>
						<path d="M16.78 335.01 L13.05 333.77 L4.19 337.35 L0 336.34 L2.25 339.45 L12.89 339.45 L8.39 338.36 L16.78
									 335.01 L16.78 335.01 L16.78 335.01 Z" class="st16"/>
					</g>
					<g id="shape69-322" v:mID="69" v:groupContext="shape" transform="translate(9.08747,-21.731)">
						<title>Sheet.69</title>
						<path d="M0 335.01 L3.73 333.77 L12.58 337.35 L16.78 336.34 L14.6 339.45 L3.88 339.45 L8.39 338.36 L0 335.01
									 L0 335.01 L0 335.01 Z" class="st16"/>
					</g>
					<g id="shape70-324" v:mID="70" v:groupContext="shape" transform="translate(25.942,-14.4095)">
						<title>Sheet.70</title>
						<path d="M16.7 338.2 L12.97 339.45 L4.12 335.95 L0 336.96 L2.17 333.77 L12.82 333.77 L8.39 334.86 L16.7 338.2
									 L16.7 338.2 L16.7 338.2 Z" class="st16"/>
					</g>
					<g id="shape71-326" v:mID="71" v:groupContext="shape" transform="translate(0.0776706,-8.4899)">
						<title>Sheet.71</title>
						<path d="M0 326.91 L0 339.45" class="st13"/>
					</g>
					<g id="shape72-329" v:mID="72" v:groupContext="shape" transform="translate(50.9519,-8.4899)">
						<title>Sheet.72</title>
						<path d="M0 326.91 L0 339.45" class="st13"/>
					</g>
				</g>
				<g id="shape73-332" v:mID="73" v:groupContext="shape" transform="translate(0.0776707,-0.188976)">
					<title>Sheet.73</title>
					<desc>SW1</desc>
					<v:userDefs/>
					<v:textBlock v:margins="rect(4,4,4,4)" v:tabSpace="42.5197"/>
					<v:textRect cx="25.6321" cy="333.744" width="51.27" height="11.4132"/>
					<rect x="0" y="328.038" width="51.2641" height="11.4132" class="st17"/>
					<text x="19.88" y="336.22" class="st18" v:langID="1026"><v:paragraph v:spLine="-1.1" v:horizAlign="1"/><v:tabList/>R<tspan
								class="st4" v:langID="1033">1</tspan></text>				</g>
			</g>
			<g id="group35-336" transform="translate(108.193,-147.071)" v:mID="35" v:groupContext="group">
				<title>Sheet.35</title>
				<g id="shape2-337" v:mID="2" v:groupContext="shape" transform="translate(0.0776707,0)">
					<title>Sheet.2</title>
					<path d="M50.87 330.73 C50.87 330.73 50.87 330.73 50.87 330.73 C50.87 335.56 39.46 339.45 25.48 339.45 C11.42
								 339.45 0 335.56 0 330.73 C0 325.9 11.42 322 25.48 322 C39.46 322 50.87 325.9 50.87 330.73 Z"
							class="st12"/>
				</g>
				<g id="shape3-339" v:mID="3" v:groupContext="shape" transform="translate(0.0776707,0)">
					<title>Sheet.3</title>
					<path d="M50.87 330.73 C50.87 330.73 50.87 330.73 50.87 330.73 C50.87 335.56 39.46 339.45 25.48 339.45 C11.42
								 339.45 0 335.56 0 330.73 C0 325.9 11.42 322 25.48 322 C39.46 322 50.87 325.9 50.87 330.73"
							class="st13"/>
				</g>
				<g id="shape4-342" v:mID="4" v:groupContext="shape" transform="translate(3.9968E-015,-8.4899)">
					<title>Sheet.4</title>
					<path d="M0 326.99 L0 339.45 L50.95 339.45 L50.95 326.99 L0 326.99 L0 326.99 L0 326.99 Z" class="st12"/>
				</g>
				<g id="shape5-344" v:mID="5" v:groupContext="shape" transform="translate(0.0776707,-12.4622)">
					<title>Sheet.5</title>
					<path d="M50.87 330.73 C50.87 330.73 50.87 330.73 50.87 330.73 C50.87 335.56 39.46 339.45 25.48 339.45 C11.42
								 339.45 0 335.56 0 330.73 C0 325.9 11.42 322 25.48 322 C39.46 322 50.87 325.9 50.87 330.73 Z"
							class="st14"/>
				</g>
				<g id="shape6-346" v:mID="6" v:groupContext="shape" transform="translate(0.0776707,-12.4622)">
					<title>Sheet.6</title>
					<path d="M50.87 330.73 C50.87 330.73 50.87 330.73 50.87 330.73 C50.87 335.56 39.46 339.45 25.48 339.45 C11.42
								 339.45 0 335.56 0 330.73 C0 325.9 11.42 322 25.48 322 C39.46 322 50.87 325.9 50.87 330.73"
							class="st15"/>
				</g>
				<g id="shape7-349" v:mID="7" v:groupContext="shape" transform="translate(26.175,-21.8868)">
					<title>Sheet.7</title>
					<path d="M0 338.2 L3.73 339.45 L12.58 335.95 L16.7 336.96 L14.52 333.77 L3.88 333.77 L8.31 334.86 L0 338.2 L0
								 338.2 L0 338.2 Z" class="st14"/>
				</g>
				<g id="shape8-351" v:mID="8" v:groupContext="shape" transform="translate(7.84474,-15.1105)">
					<title>Sheet.8</title>
					<path d="M16.78 335.01 L13.05 333.77 L4.19 337.35 L0 336.34 L2.25 339.45 L12.89 339.45 L8.39 338.36 L16.78 335.01
								 L16.78 335.01 L16.78 335.01 Z" class="st14"/>
				</g>
				<g id="shape9-353" v:mID="9" v:groupContext="shape" transform="translate(8.77678,-22.0426)">
					<title>Sheet.9</title>
					<path d="M0 335.01 L3.73 333.77 L12.58 337.35 L16.78 336.34 L14.6 339.45 L3.88 339.45 L8.39 338.36 L0 335.01
								 L0 335.01 L0 335.01 Z" class="st14"/>
				</g>
				<g id="shape10-355" v:mID="10" v:groupContext="shape" transform="translate(25.6313,-14.721)">
					<title>Sheet.10</title>
					<path d="M16.7 338.2 L12.97 339.45 L4.12 335.95 L0 336.96 L2.17 333.77 L12.82 333.77 L8.39 334.86 L16.7 338.2
								 L16.7 338.2 L16.7 338.2 Z" class="st14"/>
				</g>
				<g id="shape11-357" v:mID="11" v:groupContext="shape" transform="translate(26.4857,-21.5753)">
					<title>Sheet.11</title>
					<path d="M0 338.2 L3.73 339.45 L12.58 335.95 L16.7 336.96 L14.52 333.77 L3.88 333.77 L8.31 334.86 L0 338.2 L0
								 338.2 L0 338.2 Z" class="st16"/>
				</g>
				<g id="shape12-359" v:mID="12" v:groupContext="shape" transform="translate(8.15542,-14.7989)">
					<title>Sheet.12</title>
					<path d="M16.78 335.01 L13.05 333.77 L4.19 337.35 L0 336.34 L2.25 339.45 L12.89 339.45 L8.39 338.36 L16.78 335.01
								 L16.78 335.01 L16.78 335.01 Z" class="st16"/>
				</g>
				<g id="shape13-361" v:mID="13" v:groupContext="shape" transform="translate(9.08747,-21.731)">
					<title>Sheet.13</title>
					<path d="M0 335.01 L3.73 333.77 L12.58 337.35 L16.78 336.34 L14.6 339.45 L3.88 339.45 L8.39 338.36 L0 335.01
								 L0 335.01 L0 335.01 Z" class="st16"/>
				</g>
				<g id="shape14-363" v:mID="14" v:groupContext="shape" transform="translate(25.942,-14.4095)">
					<title>Sheet.14</title>
					<path d="M16.7 338.2 L12.97 339.45 L4.12 335.95 L0 336.96 L2.17 333.77 L12.82 333.77 L8.39 334.86 L16.7 338.2
								 L16.7 338.2 L16.7 338.2 Z" class="st16"/>
				</g>
				<g id="shape15-365" v:mID="15" v:groupContext="shape" transform="translate(0.0776706,-8.4899)">
					<title>Sheet.15</title>
					<path d="M0 326.91 L0 339.45" class="st13"/>
				</g>
				<g id="shape16-368" v:mID="16" v:groupContext="shape" transform="translate(50.9519,-8.4899)">
					<title>Sheet.16</title>
					<path d="M0 326.91 L0 339.45" class="st13"/>
				</g>
			</g>
			<g id="shape17-371" v:mID="17" v:groupContext="shape" transform="translate(108.271,-147.26)">
				<title>Sheet.17</title>
				<desc>SW1</desc>
				<v:userDefs/>
				<v:textBlock v:margins="rect(4,4,4,4)" v:tabSpace="42.5197"/>
				<v:textRect cx="25.6321" cy="333.744" width="51.27" height="11.4132"/>
				<rect x="0" y="328.038" width="51.2641" height="11.4132" class="st17"/>
				<text x="19.88" y="336.22" class="st18" v:langID="1026"><v:paragraph v:spLine="-1.1" v:horizAlign="1"/><v:tabList/>R<tspan
							class="st4" v:langID="1033">3</tspan></text>			</g>
			<g id="group38-375" transform="translate(108.193,-188.923)" v:mID="38" v:groupContext="group">
				<title>Sheet.38</title>
				<g id="shape39-376" v:mID="39" v:groupContext="shape" transform="translate(0.0776707,0)">
					<title>Sheet.39</title>
					<path d="M50.87 330.73 C50.87 330.73 50.87 330.73 50.87 330.73 C50.87 335.56 39.46 339.45 25.48 339.45 C11.42
								 339.45 0 335.56 0 330.73 C0 325.9 11.42 322 25.48 322 C39.46 322 50.87 325.9 50.87 330.73 Z"
							class="st12"/>
				</g>
				<g id="shape40-378" v:mID="40" v:groupContext="shape" transform="translate(0.0776707,0)">
					<title>Sheet.40</title>
					<path d="M50.87 330.73 C50.87 330.73 50.87 330.73 50.87 330.73 C50.87 335.56 39.46 339.45 25.48 339.45 C11.42
								 339.45 0 335.56 0 330.73 C0 325.9 11.42 322 25.48 322 C39.46 322 50.87 325.9 50.87 330.73"
							class="st13"/>
				</g>
				<g id="shape41-381" v:mID="41" v:groupContext="shape" transform="translate(3.9968E-015,-8.4899)">
					<title>Sheet.41</title>
					<path d="M0 326.99 L0 339.45 L50.95 339.45 L50.95 326.99 L0 326.99 L0 326.99 L0 326.99 Z" class="st12"/>
				</g>
				<g id="shape42-383" v:mID="42" v:groupContext="shape" transform="translate(0.0776707,-12.4622)">
					<title>Sheet.42</title>
					<path d="M50.87 330.73 C50.87 330.73 50.87 330.73 50.87 330.73 C50.87 335.56 39.46 339.45 25.48 339.45 C11.42
								 339.45 0 335.56 0 330.73 C0 325.9 11.42 322 25.48 322 C39.46 322 50.87 325.9 50.87 330.73 Z"
							class="st14"/>
				</g>
				<g id="shape43-385" v:mID="43" v:groupContext="shape" transform="translate(0.0776707,-12.4622)">
					<title>Sheet.43</title>
					<path d="M50.87 330.73 C50.87 330.73 50.87 330.73 50.87 330.73 C50.87 335.56 39.46 339.45 25.48 339.45 C11.42
								 339.45 0 335.56 0 330.73 C0 325.9 11.42 322 25.48 322 C39.46 322 50.87 325.9 50.87 330.73"
							class="st15"/>
				</g>
				<g id="shape44-388" v:mID="44" v:groupContext="shape" transform="translate(26.175,-21.8868)">
					<title>Sheet.44</title>
					<path d="M0 338.2 L3.73 339.45 L12.58 335.95 L16.7 336.96 L14.52 333.77 L3.88 333.77 L8.31 334.86 L0 338.2 L0
								 338.2 L0 338.2 Z" class="st14"/>
				</g>
				<g id="shape45-390" v:mID="45" v:groupContext="shape" transform="translate(7.84474,-15.1105)">
					<title>Sheet.45</title>
					<path d="M16.78 335.01 L13.05 333.77 L4.19 337.35 L0 336.34 L2.25 339.45 L12.89 339.45 L8.39 338.36 L16.78 335.01
								 L16.78 335.01 L16.78 335.01 Z" class="st14"/>
				</g>
				<g id="shape46-392" v:mID="46" v:groupContext="shape" transform="translate(8.77678,-22.0426)">
					<title>Sheet.46</title>
					<path d="M0 335.01 L3.73 333.77 L12.58 337.35 L16.78 336.34 L14.6 339.45 L3.88 339.45 L8.39 338.36 L0 335.01
								 L0 335.01 L0 335.01 Z" class="st14"/>
				</g>
				<g id="shape47-394" v:mID="47" v:groupContext="shape" transform="translate(25.6313,-14.721)">
					<title>Sheet.47</title>
					<path d="M16.7 338.2 L12.97 339.45 L4.12 335.95 L0 336.96 L2.17 333.77 L12.82 333.77 L8.39 334.86 L16.7 338.2
								 L16.7 338.2 L16.7 338.2 Z" class="st14"/>
				</g>
				<g id="shape48-396" v:mID="48" v:groupContext="shape" transform="translate(26.4857,-21.5753)">
					<title>Sheet.48</title>
					<path d="M0 338.2 L3.73 339.45 L12.58 335.95 L16.7 336.96 L14.52 333.77 L3.88 333.77 L8.31 334.86 L0 338.2 L0
								 338.2 L0 338.2 Z" class="st16"/>
				</g>
				<g id="shape49-398" v:mID="49" v:groupContext="shape" transform="translate(8.15542,-14.7989)">
					<title>Sheet.49</title>
					<path d="M16.78 335.01 L13.05 333.77 L4.19 337.35 L0 336.34 L2.25 339.45 L12.89 339.45 L8.39 338.36 L16.78 335.01
								 L16.78 335.01 L16.78 335.01 Z" class="st16"/>
				</g>
				<g id="shape50-400" v:mID="50" v:groupContext="shape" transform="translate(9.08747,-21.731)">
					<title>Sheet.50</title>
					<path d="M0 335.01 L3.73 333.77 L12.58 337.35 L16.78 336.34 L14.6 339.45 L3.88 339.45 L8.39 338.36 L0 335.01
								 L0 335.01 L0 335.01 Z" class="st16"/>
				</g>
				<g id="shape51-402" v:mID="51" v:groupContext="shape" transform="translate(25.942,-14.4095)">
					<title>Sheet.51</title>
					<path d="M16.7 338.2 L12.97 339.45 L4.12 335.95 L0 336.96 L2.17 333.77 L12.82 333.77 L8.39 334.86 L16.7 338.2
								 L16.7 338.2 L16.7 338.2 Z" class="st16"/>
				</g>
				<g id="shape52-404" v:mID="52" v:groupContext="shape" transform="translate(0.0776706,-8.4899)">
					<title>Sheet.52</title>
					<path d="M0 326.91 L0 339.45" class="st13"/>
				</g>
				<g id="shape53-407" v:mID="53" v:groupContext="shape" transform="translate(50.9519,-8.4899)">
					<title>Sheet.53</title>
					<path d="M0 326.91 L0 339.45" class="st13"/>
				</g>
			</g>
			<g id="shape54-410" v:mID="54" v:groupContext="shape" transform="translate(108.271,-189.112)">
				<title>Sheet.54</title>
				<desc>SW1</desc>
				<v:userDefs/>
				<v:textBlock v:margins="rect(4,4,4,4)" v:tabSpace="42.5197"/>
				<v:textRect cx="25.6321" cy="333.744" width="51.27" height="11.4132"/>
				<rect x="0" y="328.038" width="51.2641" height="11.4132" class="st17"/>
				<text x="19.88" y="336.22" class="st18" v:langID="1026"><v:paragraph v:spLine="-1.1" v:horizAlign="1"/><v:tabList/>R<tspan
							class="st4" v:langID="1033">2</tspan></text>			</g>
			<g id="group248-414" transform="translate(108.193,-20.389)" v:mID="248" v:groupContext="group">
				<title>Sheet.248</title>
				<g id="shape249-415" v:mID="249" v:groupContext="shape" transform="translate(0.0776707,0)">
					<title>Sheet.249</title>
					<path d="M50.87 330.73 C50.87 330.73 50.87 330.73 50.87 330.73 C50.87 335.56 39.46 339.45 25.48 339.45 C11.42
								 339.45 0 335.56 0 330.73 C0 325.9 11.42 322 25.48 322 C39.46 322 50.87 325.9 50.87 330.73 Z"
							class="st12"/>
				</g>
				<g id="shape250-417" v:mID="250" v:groupContext="shape" transform="translate(0.0776707,0)">
					<title>Sheet.250</title>
					<path d="M50.87 330.73 C50.87 330.73 50.87 330.73 50.87 330.73 C50.87 335.56 39.46 339.45 25.48 339.45 C11.42
								 339.45 0 335.56 0 330.73 C0 325.9 11.42 322 25.48 322 C39.46 322 50.87 325.9 50.87 330.73"
							class="st13"/>
				</g>
				<g id="shape251-420" v:mID="251" v:groupContext="shape" transform="translate(3.9968E-015,-8.4899)">
					<title>Sheet.251</title>
					<path d="M0 326.99 L0 339.45 L50.95 339.45 L50.95 326.99 L0 326.99 L0 326.99 L0 326.99 Z" class="st12"/>
				</g>
				<g id="shape252-422" v:mID="252" v:groupContext="shape" transform="translate(0.0776707,-12.4622)">
					<title>Sheet.252</title>
					<path d="M50.87 330.73 C50.87 330.73 50.87 330.73 50.87 330.73 C50.87 335.56 39.46 339.45 25.48 339.45 C11.42
								 339.45 0 335.56 0 330.73 C0 325.9 11.42 322 25.48 322 C39.46 322 50.87 325.9 50.87 330.73 Z"
							class="st14"/>
				</g>
				<g id="shape253-424" v:mID="253" v:groupContext="shape" transform="translate(0.0776707,-12.4622)">
					<title>Sheet.253</title>
					<path d="M50.87 330.73 C50.87 330.73 50.87 330.73 50.87 330.73 C50.87 335.56 39.46 339.45 25.48 339.45 C11.42
								 339.45 0 335.56 0 330.73 C0 325.9 11.42 322 25.48 322 C39.46 322 50.87 325.9 50.87 330.73"
							class="st15"/>
				</g>
				<g id="shape254-427" v:mID="254" v:groupContext="shape" transform="translate(26.175,-21.8868)">
					<title>Sheet.254</title>
					<path d="M0 338.2 L3.73 339.45 L12.58 335.95 L16.7 336.96 L14.52 333.77 L3.88 333.77 L8.31 334.86 L0 338.2 L0
								 338.2 L0 338.2 Z" class="st14"/>
				</g>
				<g id="shape255-429" v:mID="255" v:groupContext="shape" transform="translate(7.84474,-15.1105)">
					<title>Sheet.255</title>
					<path d="M16.78 335.01 L13.05 333.77 L4.19 337.35 L0 336.34 L2.25 339.45 L12.89 339.45 L8.39 338.36 L16.78 335.01
								 L16.78 335.01 L16.78 335.01 Z" class="st14"/>
				</g>
				<g id="shape256-431" v:mID="256" v:groupContext="shape" transform="translate(8.77678,-22.0426)">
					<title>Sheet.256</title>
					<path d="M0 335.01 L3.73 333.77 L12.58 337.35 L16.78 336.34 L14.6 339.45 L3.88 339.45 L8.39 338.36 L0 335.01
								 L0 335.01 L0 335.01 Z" class="st14"/>
				</g>
				<g id="shape257-433" v:mID="257" v:groupContext="shape" transform="translate(25.6313,-14.721)">
					<title>Sheet.257</title>
					<path d="M16.7 338.2 L12.97 339.45 L4.12 335.95 L0 336.96 L2.17 333.77 L12.82 333.77 L8.39 334.86 L16.7 338.2
								 L16.7 338.2 L16.7 338.2 Z" class="st14"/>
				</g>
				<g id="shape258-435" v:mID="258" v:groupContext="shape" transform="translate(26.4857,-21.5753)">
					<title>Sheet.258</title>
					<path d="M0 338.2 L3.73 339.45 L12.58 335.95 L16.7 336.96 L14.52 333.77 L3.88 333.77 L8.31 334.86 L0 338.2 L0
								 338.2 L0 338.2 Z" class="st16"/>
				</g>
				<g id="shape259-437" v:mID="259" v:groupContext="shape" transform="translate(8.15542,-14.7989)">
					<title>Sheet.259</title>
					<path d="M16.78 335.01 L13.05 333.77 L4.19 337.35 L0 336.34 L2.25 339.45 L12.89 339.45 L8.39 338.36 L16.78 335.01
								 L16.78 335.01 L16.78 335.01 Z" class="st16"/>
				</g>
				<g id="shape260-439" v:mID="260" v:groupContext="shape" transform="translate(9.08747,-21.731)">
					<title>Sheet.260</title>
					<path d="M0 335.01 L3.73 333.77 L12.58 337.35 L16.78 336.34 L14.6 339.45 L3.88 339.45 L8.39 338.36 L0 335.01
								 L0 335.01 L0 335.01 Z" class="st16"/>
				</g>
				<g id="shape261-441" v:mID="261" v:groupContext="shape" transform="translate(25.942,-14.4095)">
					<title>Sheet.261</title>
					<path d="M16.7 338.2 L12.97 339.45 L4.12 335.95 L0 336.96 L2.17 333.77 L12.82 333.77 L8.39 334.86 L16.7 338.2
								 L16.7 338.2 L16.7 338.2 Z" class="st16"/>
				</g>
				<g id="shape262-443" v:mID="262" v:groupContext="shape" transform="translate(0.0776706,-8.4899)">
					<title>Sheet.262</title>
					<path d="M0 326.91 L0 339.45" class="st13"/>
				</g>
				<g id="shape263-446" v:mID="263" v:groupContext="shape" transform="translate(50.9519,-8.4899)">
					<title>Sheet.263</title>
					<path d="M0 326.91 L0 339.45" class="st13"/>
				</g>
			</g>
			<g id="shape264-449" v:mID="264" v:groupContext="shape" transform="translate(108.271,-20.5779)">
				<title>Sheet.264</title>
				<desc>SW1</desc>
				<v:userDefs/>
				<v:textBlock v:margins="rect(4,4,4,4)" v:tabSpace="42.5197"/>
				<v:textRect cx="25.6321" cy="333.744" width="51.27" height="11.4132"/>
				<rect x="0" y="328.038" width="51.2641" height="11.4132" class="st17"/>
				<text x="19.88" y="336.22" class="st18" v:langID="1026"><v:paragraph v:spLine="-1.1" v:horizAlign="1"/><v:tabList/>R<tspan
							class="st4" v:langID="1033">5</tspan></text>			</g>
			<g id="group266-453" transform="translate(108.193,-62.2409)" v:mID="266" v:groupContext="group">
				<title>Sheet.266</title>
				<g id="shape267-454" v:mID="267" v:groupContext="shape" transform="translate(0.0776707,0)">
					<title>Sheet.267</title>
					<path d="M50.87 330.73 C50.87 330.73 50.87 330.73 50.87 330.73 C50.87 335.56 39.46 339.45 25.48 339.45 C11.42
								 339.45 0 335.56 0 330.73 C0 325.9 11.42 322 25.48 322 C39.46 322 50.87 325.9 50.87 330.73 Z"
							class="st12"/>
				</g>
				<g id="shape268-456" v:mID="268" v:groupContext="shape" transform="translate(0.0776707,0)">
					<title>Sheet.268</title>
					<path d="M50.87 330.73 C50.87 330.73 50.87 330.73 50.87 330.73 C50.87 335.56 39.46 339.45 25.48 339.45 C11.42
								 339.45 0 335.56 0 330.73 C0 325.9 11.42 322 25.48 322 C39.46 322 50.87 325.9 50.87 330.73"
							class="st13"/>
				</g>
				<g id="shape269-459" v:mID="269" v:groupContext="shape" transform="translate(3.9968E-015,-8.4899)">
					<title>Sheet.269</title>
					<path d="M0 326.99 L0 339.45 L50.95 339.45 L50.95 326.99 L0 326.99 L0 326.99 L0 326.99 Z" class="st12"/>
				</g>
				<g id="shape270-461" v:mID="270" v:groupContext="shape" transform="translate(0.0776707,-12.4622)">
					<title>Sheet.270</title>
					<path d="M50.87 330.73 C50.87 330.73 50.87 330.73 50.87 330.73 C50.87 335.56 39.46 339.45 25.48 339.45 C11.42
								 339.45 0 335.56 0 330.73 C0 325.9 11.42 322 25.48 322 C39.46 322 50.87 325.9 50.87 330.73 Z"
							class="st14"/>
				</g>
				<g id="shape271-463" v:mID="271" v:groupContext="shape" transform="translate(0.0776707,-12.4622)">
					<title>Sheet.271</title>
					<path d="M50.87 330.73 C50.87 330.73 50.87 330.73 50.87 330.73 C50.87 335.56 39.46 339.45 25.48 339.45 C11.42
								 339.45 0 335.56 0 330.73 C0 325.9 11.42 322 25.48 322 C39.46 322 50.87 325.9 50.87 330.73"
							class="st15"/>
				</g>
				<g id="shape272-466" v:mID="272" v:groupContext="shape" transform="translate(26.175,-21.8868)">
					<title>Sheet.272</title>
					<path d="M0 338.2 L3.73 339.45 L12.58 335.95 L16.7 336.96 L14.52 333.77 L3.88 333.77 L8.31 334.86 L0 338.2 L0
								 338.2 L0 338.2 Z" class="st14"/>
				</g>
				<g id="shape273-468" v:mID="273" v:groupContext="shape" transform="translate(7.84474,-15.1105)">
					<title>Sheet.273</title>
					<path d="M16.78 335.01 L13.05 333.77 L4.19 337.35 L0 336.34 L2.25 339.45 L12.89 339.45 L8.39 338.36 L16.78 335.01
								 L16.78 335.01 L16.78 335.01 Z" class="st14"/>
				</g>
				<g id="shape274-470" v:mID="274" v:groupContext="shape" transform="translate(8.77678,-22.0426)">
					<title>Sheet.274</title>
					<path d="M0 335.01 L3.73 333.77 L12.58 337.35 L16.78 336.34 L14.6 339.45 L3.88 339.45 L8.39 338.36 L0 335.01
								 L0 335.01 L0 335.01 Z" class="st14"/>
				</g>
				<g id="shape275-472" v:mID="275" v:groupContext="shape" transform="translate(25.6313,-14.721)">
					<title>Sheet.275</title>
					<path d="M16.7 338.2 L12.97 339.45 L4.12 335.95 L0 336.96 L2.17 333.77 L12.82 333.77 L8.39 334.86 L16.7 338.2
								 L16.7 338.2 L16.7 338.2 Z" class="st14"/>
				</g>
				<g id="shape276-474" v:mID="276" v:groupContext="shape" transform="translate(26.4857,-21.5753)">
					<title>Sheet.276</title>
					<path d="M0 338.2 L3.73 339.45 L12.58 335.95 L16.7 336.96 L14.52 333.77 L3.88 333.77 L8.31 334.86 L0 338.2 L0
								 338.2 L0 338.2 Z" class="st16"/>
				</g>
				<g id="shape277-476" v:mID="277" v:groupContext="shape" transform="translate(8.15542,-14.7989)">
					<title>Sheet.277</title>
					<path d="M16.78 335.01 L13.05 333.77 L4.19 337.35 L0 336.34 L2.25 339.45 L12.89 339.45 L8.39 338.36 L16.78 335.01
								 L16.78 335.01 L16.78 335.01 Z" class="st16"/>
				</g>
				<g id="shape278-478" v:mID="278" v:groupContext="shape" transform="translate(9.08747,-21.731)">
					<title>Sheet.278</title>
					<path d="M0 335.01 L3.73 333.77 L12.58 337.35 L16.78 336.34 L14.6 339.45 L3.88 339.45 L8.39 338.36 L0 335.01
								 L0 335.01 L0 335.01 Z" class="st16"/>
				</g>
				<g id="shape279-480" v:mID="279" v:groupContext="shape" transform="translate(25.942,-14.4095)">
					<title>Sheet.279</title>
					<path d="M16.7 338.2 L12.97 339.45 L4.12 335.95 L0 336.96 L2.17 333.77 L12.82 333.77 L8.39 334.86 L16.7 338.2
								 L16.7 338.2 L16.7 338.2 Z" class="st16"/>
				</g>
				<g id="shape280-482" v:mID="280" v:groupContext="shape" transform="translate(0.0776706,-8.4899)">
					<title>Sheet.280</title>
					<path d="M0 326.91 L0 339.45" class="st13"/>
				</g>
				<g id="shape281-485" v:mID="281" v:groupContext="shape" transform="translate(50.9519,-8.4899)">
					<title>Sheet.281</title>
					<path d="M0 326.91 L0 339.45" class="st13"/>
				</g>
			</g>
			<g id="shape282-488" v:mID="282" v:groupContext="shape" transform="translate(108.271,-62.4298)">
				<title>Sheet.282</title>
				<desc>SW1</desc>
				<v:userDefs/>
				<v:textBlock v:margins="rect(4,4,4,4)" v:tabSpace="42.5197"/>
				<v:textRect cx="25.6321" cy="333.744" width="51.27" height="11.4132"/>
				<rect x="0" y="328.038" width="51.2641" height="11.4132" class="st17"/>
				<text x="19.88" y="336.22" class="st18" v:langID="1026"><v:paragraph v:spLine="-1.1" v:horizAlign="1"/><v:tabList/>R<tspan
							class="st4" v:langID="1033">4</tspan></text>			</g>
			<g id="shape309-492" v:mID="309" v:groupContext="shape" transform="translate(91.5883,-218.102)">
				<title>Sheet.309</title>
				<desc>Internal Routers</desc>
				<v:textBlock v:margins="rect(4,4,4,4)" v:tabSpace="42.5197"/>
				<v:textRect cx="42.2758" cy="331.082" width="84.56" height="16.7391"/>
				<rect x="0" y="322.712" width="84.5515" height="16.7391" class="st17"/>
				<text x="6.7" y="334.08" class="st21" v:langID="1033"><v:paragraph v:horizAlign="1"/><v:tabList/>Internal Routers</text>			</g>
			<g id="shape310-495" v:mID="310" v:groupContext="shape" transform="translate(4.79616E-014,-164.182)">
				<title>Sheet.310</title>
				<desc>Transit Network (a DR with at least one neighbor)</desc>
				<v:textBlock v:margins="rect(4,4,4,4)" v:tabSpace="42.5197"/>
				<v:textRect cx="42.2758" cy="324.689" width="84.56" height="29.524"/>
				<rect x="0" y="309.927" width="84.5515" height="29.524" class="st17"/>
				<text x="50.55" y="312.31" class="st22" v:langID="1033"><v:paragraph v:spLine="-1.1" v:horizAlign="2"/><v:tabList/>Transit <v:newlineChar/><tspan
							x="45.04" dy="1.1em" class="st4">Network<v:newlineChar/></tspan><tspan x="7.03" dy="1.1em" class="st5">(</tspan><tspan
							class="st5">a DR with at least </tspan><tspan x="25.01" dy="1.1em" class="st5">one neighbor</tspan><tspan
							class="st5">)</tspan></text>			</g>
			<g id="shape311-503" v:mID="311" v:groupContext="shape" transform="translate(4.79616E-014,-40.2246)">
				<title>Sheet.311</title>
				<desc>Transit Network (a DR with at least one neighbor)</desc>
				<v:textBlock v:margins="rect(4,4,4,4)" v:tabSpace="42.5197"/>
				<v:textRect cx="42.2758" cy="324.689" width="84.56" height="29.524"/>
				<rect x="0" y="309.927" width="84.5515" height="29.524" class="st17"/>
				<text x="50.55" y="312.31" class="st22" v:langID="1033"><v:paragraph v:spLine="-1.1" v:horizAlign="2"/><v:tabList/>Transit <v:newlineChar/><tspan
							x="45.04" dy="1.1em" class="st4">Network<v:newlineChar/></tspan><tspan x="7.03" dy="1.1em" class="st5">(</tspan><tspan
							class="st5">a DR with at least </tspan><tspan x="25.01" dy="1.1em" class="st5">one neighbor</tspan><tspan
							class="st5">)</tspan></text>			</g>
			<g id="shape312-511" v:mID="312" v:groupContext="shape" transform="translate(4.79616E-014,-278.924)">
				<title>Sheet.312</title>
				<desc>Stub Network (a DR with no neighbors)</desc>
				<v:textBlock v:margins="rect(4,4,4,4)" v:tabSpace="42.5197"/>
				<v:textRect cx="42.2758" cy="324.689" width="84.56" height="29.524"/>
				<rect x="0" y="309.927" width="84.5515" height="29.524" class="st17"/>
				<text x="60.56" y="312.31" class="st22" v:langID="1033"><v:paragraph v:spLine="-1.1" v:horizAlign="2"/><v:tabList/>Stub <v:newlineChar/><tspan
							x="45.04" dy="1.1em" class="st4">Network<v:newlineChar/></tspan><tspan x="26.03" dy="1.1em" class="st5">(</tspan><tspan
							class="st5">a DR with no </tspan><tspan x="38.03" dy="1.1em" class="st5">neighbors</tspan><tspan
							class="st5">)</tspan></text>			</g>
			<g id="shape313-519" v:mID="313" v:groupContext="shape" transform="translate(91.5883,-93.0569)">
				<title>Sheet.313</title>
				<desc>Internal Routers</desc>
				<v:textBlock v:margins="rect(4,4,4,4)" v:tabSpace="42.5197"/>
				<v:textRect cx="42.2758" cy="331.082" width="84.56" height="16.7391"/>
				<rect x="0" y="322.712" width="84.5515" height="16.7391" class="st17"/>
				<text x="6.7" y="334.08" class="st21" v:langID="1033"><v:paragraph v:horizAlign="1"/><v:tabList/>Internal Routers</text>			</g>
			<g id="shape314-522" v:mID="314" v:groupContext="shape" transform="translate(242.73,-264.75)">
				<title>Sheet.314</title>
				<desc>Area Border Router (ABR)</desc>
				<v:textBlock v:margins="rect(4,4,4,4)" v:tabSpace="42.5197"/>
				<v:textRect cx="53.4184" cy="327.086" width="106.84" height="24.73"/>
				<rect x="0" y="314.721" width="106.837" height="24.73" class="st17"/>
				<text x="4" y="324.39" class="st22" v:langID="1033"><v:paragraph/><v:tabList/>Area Border Router <tspan x="4"
							dy="1.2em" class="st4">(</tspan>ABR)</text>			</g>
			<g id="shape315-526" v:mID="315" v:groupContext="shape" transform="translate(242.73,-40.8134)">
				<title>Sheet.315</title>
				<desc>Area Border Router (ABR)</desc>
				<v:textBlock v:margins="rect(4,4,4,4)" v:tabSpace="42.5197"/>
				<v:textRect cx="53.4184" cy="327.086" width="106.84" height="24.73"/>
				<rect x="0" y="314.721" width="106.837" height="24.73" class="st17"/>
				<text x="4" y="324.39" class="st22" v:langID="1033"><v:paragraph/><v:tabList/>Area Border Router <tspan x="4"
							dy="1.2em" class="st4">(</tspan>ABR)</text>			</g>
			<g id="shape316-530" v:mID="316" v:groupContext="shape" transform="translate(283.813,-226.874)">
				<title>Sheet.316</title>
				<desc>Backbone Router (all interfaces in Area 0)</desc>
				<v:textBlock v:margins="rect(4,4,4,4)" v:tabSpace="42.5197"/>
				<v:textRect cx="53.4184" cy="327.086" width="106.84" height="24.73"/>
				<rect x="0" y="314.721" width="106.837" height="24.73" class="st17"/>
				<text x="16.16" y="324.39" class="st22" v:langID="1033"><v:paragraph v:horizAlign="1"/><v:tabList/>Backbone Router<v:newlineChar/><tspan
							x="5.9" dy="1.2em" class="st5">(</tspan><tspan class="st5">all interfaces in Area </tspan><tspan
							class="st5">0</tspan><tspan class="st5">)</tspan></text>			</g>
			<g id="shape317-537" v:mID="317" v:groupContext="shape" transform="translate(283.813,-75.4119)">
				<title>Sheet.317</title>
				<desc>Backbone Router</desc>
				<v:textBlock v:margins="rect(4,4,4,4)" v:tabSpace="42.5197"/>
				<v:textRect cx="53.4184" cy="331.629" width="106.84" height="15.6437"/>
				<rect x="0" y="323.808" width="106.837" height="15.6437" class="st17"/>
				<text x="16.16" y="334.33" class="st22" v:langID="1033"><v:paragraph v:horizAlign="1"/><v:tabList/>Backbone Router</text>			</g>
			<g id="shape318-540" v:mID="318" v:groupContext="shape" transform="translate(370.267,-182.099)">
				<title>Sheet.318</title>
				<desc>Autonomous System Border Router (ASBR)</desc>
				<v:textBlock v:margins="rect(4,4,4,4)" v:tabSpace="42.5197"/>
				<v:textRect cx="53.4184" cy="327.086" width="106.84" height="24.73"/>
				<rect x="0" y="314.721" width="106.837" height="24.73" class="st17"/>
				<text x="8.41" y="324.39" class="st22" v:langID="1033"><v:paragraph v:horizAlign="1"/><v:tabList/>Autonomous System <tspan
							x="5.92" dy="1.2em" class="st4">Border Router </tspan>(ASBR)</text>			</g>
		</g>
	</g>
</svg>
